# xmcd
#
# Track frame offsets:
#	183
#	78633
#	140433
#	210545
#	240270
#	244448
#	256958
#	277900
#	294260
#	304593
#
# Disc length: 4313 seconds
#
# Revision: 2
# Processed by: cddbd v1.5.2PL0 Copyright (c) Steve Scherf et al.
# Submitted via: EasyCDDAExtractor 16.0.8.2
#
DISCID=8710d70a
DTITLE=Άνευ ερμηνευτού - The 9 Symphonies-Beethoven 6
DYEAR=1993
DGENRE=Κλασική
TTITLE0=Άνευ ερμηνευτού - S. 9 in D minor, op.125 "Choral" I. Allegro ma non t
TTITLE0=roppo, poco maestoso
TTITLE1=Άνευ ερμηνευτού - S. 9 in D minor, op.125 "Choral" II. Molto vivace
TTITLE2=Άνευ ερμηνευτού - S. 9 in D minor, op.125 "Choral" III. Adagio molto e
TTITLE2=cantabile
TTITLE3=Άνευ ερμηνευτού - S. 9 in D minor, op.125 "Choral" IV. Presto
TTITLE4=Χορωδία - S. 9 in D minor, op.125 "Choral" "O Freunde, nicht diese Ton
TTITLE4=e"
TTITLE5=Χορωδία - S. 9 in D minor, op.125 "Choral" Allegro assai
TTITLE6=Χορωδία - S. 9 in D minor, op.125 "Choral" Alla marcia: Allegro vivace
TTITLE6=assai -
TTITLE7=Χορωδία - S. 9 in D minor, op.125 "Choral" Andante maestoso - Adagio n
TTITLE7=on troppo
TTITLE8=Χορωδία - S. 9 in D minor, op.125 "Choral" Allegro energico, sempre be
TTITLE8=n marcato
TTITLE9=Χορωδία - S. 9 in D minor, op.125 "Choral" Allegro ma non tanto
EXTD=
EXTT0=
EXTT1=
EXTT2=
EXTT3=
EXTT4=
EXTT5=
EXTT6=
EXTT7=
EXTT8=
EXTT9=
PLAYORDER=
